REM DISCID FB105C12
REM COMMENT "ExactAudioCopy v1.1"
CATALOG 4571374912320
PERFORMER "Various Artists"
TITLE "初音ミク Project mirai こんぷり~と DISC2"
FILE "Various Artists - 初音ミク Project mirai こんぷり~と DISC2.wav" WAVE
  TRACK 01 AUDIO
    TITLE "ファインダー feat. 初音ミク（DSLR remix - re:edit）"
    PERFORMER "livetune"
    ISRC JPJ931500078
    INDEX 01 00:00:00
  TRACK 02 AUDIO
    TITLE "スイートマジック feat. 鏡音リン"
    PERFORMER "Junky"
    ISRC JPJ931500079
    INDEX 00 03:30:30
    INDEX 01 03:32:00
  TRACK 03 AUDIO
    TITLE "深海少女 feat. 初音ミク"
    PERFORMER "ゆうゆ"
    ISRC JPJ931500080
    INDEX 00 07:02:30
    INDEX 01 07:04:00
  TRACK 04 AUDIO
    TITLE "どうぶつ占い feat. 初音ミク"
    PERFORMER "すこっぷ"
    ISRC JPJ931500081
    INDEX 00 10:37:30
    INDEX 01 10:39:00
  TRACK 05 AUDIO
    TITLE "テレカクシ思春期 feat. 鏡音レン"
    PERFORMER "HoneyWorks"
    ISRC JPJ931500082
    INDEX 00 15:31:30
    INDEX 01 15:33:00
  TRACK 06 AUDIO
    TITLE "ワールドイズマイン feat. 初音ミク"
    PERFORMER "supercell"
    ISRC JPJ931500083
    INDEX 00 18:59:30
    INDEX 01 19:01:00
  TRACK 07 AUDIO
    TITLE "アマツキツネ feat. 鏡音リン"
    PERFORMER "まらしぃ"
    ISRC JPJ931500084
    INDEX 00 23:13:30
    INDEX 01 23:15:00
  TRACK 08 AUDIO
    TITLE "アゲアゲアゲイン feat. 初音ミク"
    PERFORMER "Mitchie M"
    ISRC JPM801300122
    INDEX 00 27:06:30
    INDEX 01 27:08:00
  TRACK 09 AUDIO
    TITLE "クローバー♣クラブ feat. 初音ミク"
    PERFORMER " ゆうゆ"
    ISRC JPJ931500085
    INDEX 00 30:48:30
    INDEX 01 30:50:00
  TRACK 10 AUDIO
    TITLE "スノーマン feat. KAITO"
    PERFORMER "halyosy"
    ISRC JPJ931500086
    INDEX 00 33:48:30
    INDEX 01 33:50:00
  TRACK 11 AUDIO
    TITLE "インビジブル feat. 鏡音リン, GUMI"
    PERFORMER "kemu"
    ISRC JPJ931500087
    INDEX 00 37:35:30
    INDEX 01 37:37:00
  TRACK 12 AUDIO
    TITLE "骸骨楽団とリリア feat. 初音ミク"
    PERFORMER "トーマ"
    ISRC JPJ931500088
    INDEX 00 41:09:30
    INDEX 01 41:11:00
  TRACK 13 AUDIO
    TITLE "ありふれたせかいせいふく feat. 初音ミク"
    PERFORMER "ピノキオピー"
    ISRC JPJ931500089
    INDEX 00 44:29:30
    INDEX 01 44:31:00
  TRACK 14 AUDIO
    TITLE "どうぶつ占い　(鏡音リンボーカル Ver.)"
    PERFORMER "すこっぷ"
    ISRC JPJ931500090
    INDEX 00 47:50:30
    INDEX 01 47:52:00
  TRACK 15 AUDIO
    TITLE "どうぶつ占い　(巡音ルカボーカル Ver.)"
    PERFORMER "すこっぷ"
    ISRC JPJ931500091
    INDEX 00 52:43:30
    INDEX 01 52:45:00
  TRACK 16 AUDIO
    TITLE "どうぶつ占い　(MEIKOボーカル Ver.)"
    PERFORMER "すこっぷ"
    ISRC JPJ931500092
    INDEX 00 57:36:30
    INDEX 01 57:38:00
  TRACK 17 AUDIO
    TITLE "テレカクシ思春期　(KAITOボーカル Ver.)"
    PERFORMER "HoneyWorks"
    ISRC JPJ931500093
    INDEX 00 62:29:30
    INDEX 01 62:31:00
  TRACK 18 AUDIO
    TITLE "スノーマン (鏡音レンボーカル Ver.)"
    PERFORMER "halyosy"
    ISRC JPJ931500094
    INDEX 00 65:57:30
    INDEX 01 65:59:00
